<?xml version="1.0" encoding="utf-8"?>
<!-- Generated by IcoMoon.io -->
<!DOCTYPE svg PUBLIC "-//W3C//DTD SVG 1.1//EN" "http://www.w3.org/Graphics/SVG/1.1/DTD/svg11.dtd">
<svg version="1.1" xmlns="http://www.w3.org/2000/svg" xmlns:xlink="http://www.w3.org/1999/xlink" width="32" height="32" viewBox="0 0 32 32">
<path d="M28 32h-22q-1.656 0-2.828-1.172t-1.172-2.828v-22q0-1.656 1.172-2.813t2.828-1.156h22q1.656 0 2.828 1.156t1.172 2.813v22q0 1.656-1.172 2.828t-2.828 1.172zM9 6q-1.25 0-2.125 0.891t-0.875 2.125 0.875 2.109 2.125 0.875 2.125-0.875 0.875-2.109-0.875-2.125-2.125-0.891zM9 22q-1.25 0-2.125 0.875t-0.875 2.125 0.875 2.125 2.125 0.875 2.125-0.875 0.875-2.125-0.875-2.125-2.125-0.875zM17 14q-1.25 0-2.125 0.891t-0.875 2.125 0.875 2.109 2.125 0.875 2.125-0.875 0.875-2.109-0.875-2.125-2.125-0.891zM25 6q-1.25 0-2.125 0.891t-0.875 2.125 0.875 2.109 2.125 0.875 2.125-0.875 0.875-2.109-0.875-2.125-2.125-0.891zM25 22q-1.25 0-2.125 0.875t-0.875 2.125 0.875 2.125 2.125 0.875 2.125-0.875 0.875-2.125-0.875-2.125-2.125-0.875z" fill="#000000"></path>
</svg>
